<svg width="28" height="28" viewBox="0 0 28 28" fill="none" xmlns="http://www.w3.org/2000/svg">
<path d="M4.66667 2.33333V25.6667L7 24.5L9.33333 25.6667L11.6667 24.5L14 25.6667L16.3333 24.5L18.6667 25.6667L21 24.5L23.3333 25.6667V2.33333L21 3.5L18.6667 2.33333L16.3333 3.5L14 2.33333L11.6667 3.5L9.33333 2.33333L7 3.5L4.66667 2.33333Z" stroke="#155DFC" stroke-width="2.33333" stroke-linecap="round" stroke-linejoin="round"/>
<path d="M18.6667 9.33333H11.6667C11.0478 9.33333 10.4543 9.57917 10.0168 10.0168C9.57917 10.4543 9.33333 11.0478 9.33333 11.6667C9.33333 12.2855 9.57917 12.879 10.0168 13.3166C10.4543 13.7542 11.0478 14 11.6667 14H16.3333C16.9522 14 17.5457 14.2458 17.9832 14.6834C18.4208 15.121 18.6667 15.7145 18.6667 16.3333C18.6667 16.9522 18.4208 17.5457 17.9832 17.9832C17.5457 18.4208 16.9522 18.6667 16.3333 18.6667H9.33333" stroke="#155DFC" stroke-width="2.33333" stroke-linecap="round" stroke-linejoin="round"/>
<path d="M14 20.4167V7.58333" stroke="#155DFC" stroke-width="2.33333" stroke-linecap="round" stroke-linejoin="round"/>
</svg>
